# File created by Blade
# Date/Time:  Wed Sep 24 19:10:19 2014
# Frame Rate: 120.000 fps
#------------------------------------------------------
:FULLY-SPECIFIED
:DEGREES
3922
root -7.920498 33.138346 -3.380616 53.617330 19.802076 9.036503
Spine -30.179334 8.190451 3.882748
Head -19.290952 17.504895 -8.752346
LeftShoulder -9.162827 20.103958 12.356386
LeftArm 18.827383 -24.023095 -87.922182
LeftForeArm -1.313548 -0.000000 118.769057
LeftHand -33.577047 -0.000000 38.607765
LeftHandThumb1 -26.253704 0.000000 33.147579
RightShoulder -17.075717 7.468783 -21.896156
RightArm -15.123938 -20.457579 71.699500
RightForeArm -24.763804 -0.000000 39.958570
RightHand -4.179063 -0.000000 8.690593
RightHandThumb1 -24.326973 -0.000000 -32.862282
LeftUpLeg 9.848648 16.242445 12.557551
LeftLeg 58.806362 -0.000000 -0.000000
LeftFoot 36.982217 16.474588 -17.105992
LeftToeBase 10.743633 -0.000000 -0.000000
RightUpLeg -53.993323 -12.446202 12.237923
RightLeg 10.138127 -0.000000 -0.000000
RightFoot -11.595754 -18.326462 -7.390147
RightToeBase -3.375048 -0.000000 0.000000
3923
root -7.933226 33.151799 -3.375669 53.829151 20.134488 9.241887
Spine -30.285191 7.979945 4.021891
Head -19.432774 17.381364 -8.960126
LeftShoulder -9.142903 20.029333 12.307195
LeftArm 18.786050 -23.975216 -87.882475
LeftForeArm -1.385877 -0.000000 118.762153
LeftHand -33.535945 0.000000 38.772656
LeftHandThumb1 -26.253704 0.000000 33.147579
RightShoulder -16.999366 7.464957 -21.977517
RightArm -15.130500 -20.354310 71.630821
RightForeArm -24.762362 0.000000 39.889569
RightHand -4.191507 -0.000000 8.674023
RightHandThumb1 -24.326973 -0.000000 -32.862282
LeftUpLeg 10.110170 15.793449 12.664358
LeftLeg 54.848700 -0.000000 -0.000000
LeftFoot 37.334227 15.564224 -17.167529
LeftToeBase 11.355227 -0.000000 -0.000000
RightUpLeg -54.055185 -12.626575 12.286131
RightLeg 9.967433 -0.000000 -0.000000
RightFoot -11.549480 -18.452452 -7.260833
RightToeBase -3.311897 -0.000000 0.000000
3924
root -7.944890 33.168791 -3.377249 54.127069 20.395236 9.505356
Spine -30.449470 7.768105 4.005566
Head -19.591451 17.250124 -9.071564
LeftShoulder -9.116259 19.985542 12.317446
LeftArm 18.766820 -23.928409 -87.849098
LeftForeArm -1.499334 -0.000000 118.784537
LeftHand -33.524972 -0.000000 38.876000
LeftHandThumb1 -26.253704 0.000000 33.147579
RightShoulder -16.959222 7.431172 -21.988507
RightArm -15.140134 -20.377525 71.530129
RightForeArm -24.598854 -0.000000 39.930360
RightHand -4.239089 0.000000 8.394056
RightHandThumb1 -24.326973 -0.000000 -32.862282
LeftUpLeg 10.319289 15.346313 12.662371
LeftLeg 50.751268 -0.000000 -0.000000
LeftFoot 37.820932 14.637609 -17.149353
LeftToeBase 11.201966 -0.000000 -0.000000
RightUpLeg -54.212398 -12.799850 12.258368
RightLeg 9.825308 -0.000000 -0.000000
RightFoot -11.500695 -18.549598 -7.112689
RightToeBase -3.313983 -0.000000 0.000000
3925
root -7.952813 33.185062 -3.380555 54.404164 20.694889 9.789494
Spine -30.557685 7.552344 4.045217
Head -19.772276 17.081928 -9.254721
LeftShoulder -9.075684 19.904540 12.294506
LeftArm 18.693530 -23.878493 -87.813062
LeftForeArm -1.575292 -0.000000 118.846054
LeftHand -33.518583 -0.000000 38.902091
LeftHandThumb1 -26.253704 0.000000 33.147579
RightShoulder -16.907647 7.458310 -22.076162
RightArm -15.211354 -20.277049 71.476500
RightForeArm -24.572479 -0.000000 39.909544
RightHand -4.156367 0.000000 8.439711
RightHandThumb1 -24.326973 -0.000000 -32.862282
LeftUpLeg 10.602131 14.888705 12.641905
LeftLeg 46.514731 -0.000000 -0.000000
LeftFoot 38.081347 14.132019 -16.893430
LeftToeBase 10.921857 -0.000000 -0.000000
RightUpLeg -54.345528 -12.999006 12.223758
RightLeg 9.694560 -0.000000 -0.000000
RightFoot -11.458869 -18.716935 -7.003916
RightToeBase -3.234094 -0.000000 0.000000
3926
root -7.967567 33.204838 -3.385505 54.748306 21.041885 10.117549
Spine -30.717526 7.304375 4.055472
Head -19.946313 16.863637 -9.393271
LeftShoulder -9.021632 19.835773 12.297631
LeftArm 18.643996 -23.833297 -87.787976
LeftForeArm -1.712404 -0.000000 118.919845
LeftHand -33.633694 -0.000000 39.270827
LeftHandThumb1 -26.253704 0.000000 33.147579
RightShoulder -16.880367 7.470266 -22.117829
RightArm -15.257316 -20.211349 71.390683
RightForeArm -24.517611 -0.000000 39.880382
RightHand -4.215361 -0.000000 8.619409
RightHandThumb1 -24.326973 -0.000000 -32.862282
LeftUpLeg 10.815795 14.425174 12.672478
LeftLeg 42.206166 -0.000000 -0.000000
LeftFoot 38.237591 14.082362 -16.855314
LeftToeBase 11.029266 -0.000000 -0.000000
RightUpLeg -54.542538 -13.239924 12.221983
RightLeg 9.567380 -0.000000 -0.000000
RightFoot -11.418404 -18.857685 -6.861856
RightToeBase -3.213992 -0.000000 0.000000
3927
root -7.978442 33.225620 -3.387793 55.129763 21.397952 10.480761
Spine -30.916056 7.018056 4.078583
Head -20.114506 16.640516 -9.557848
LeftShoulder -9.022592 19.858598 12.249304
LeftArm 18.627153 -23.740675 -87.750760
LeftForeArm -1.812768 0.000000 119.034424
LeftHand -33.608195 -0.000000 39.238004
LeftHandThumb1 -26.253704 0.000000 33.147579
RightShoulder -16.819925 7.454335 -22.166965
RightArm -15.330501 -20.149895 71.327811
RightForeArm -24.485390 -0.000000 39.885408
RightHand -4.308198 0.000000 8.432132
RightHandThumb1 -24.326973 -0.000000 -32.862282
LeftUpLeg 11.028251 13.732279 12.562444
LeftLeg 37.808646 -0.000000 -0.000000
LeftFoot 38.234769 14.261183 -16.860835
LeftToeBase 11.288780 -0.000000 -0.000000
RightUpLeg -54.760569 -13.534570 12.237050
RightLeg 9.429524 -0.000000 -0.000000
RightFoot -11.402541 -18.954946 -6.705408
RightToeBase -3.133766 -0.000000 0.000000
3928
root -7.994461 33.247997 -3.397126 55.539616 21.761333 10.880995
Spine -31.077233 6.721545 4.047472
Head -20.389331 16.427694 -9.677502
LeftShoulder -8.986404 19.831395 12.260438
LeftArm 18.559105 -23.636499 -87.714978
LeftForeArm -1.833791 0.000000 119.202389
LeftHand -33.685246 0.000000 39.224343
LeftHandThumb1 -26.253704 0.000000 33.147579
RightShoulder -16.780456 7.493660 -22.243434
RightArm -15.404261 -19.864504 71.306569
RightForeArm -24.725500 -0.000000 39.779767
RightHand -4.151905 0.000000 8.636764
RightHandThumb1 -24.326973 -0.000000 -32.862282
LeftUpLeg 11.199837 12.924625 12.439210
LeftLeg 33.469544 -0.000000 -0.000000
LeftFoot 38.089842 14.564535 -16.969956
LeftToeBase 11.171819 -0.000000 -0.000000
RightUpLeg -55.016319 -13.824990 12.217633
RightLeg 9.317484 -0.000000 -0.000000
RightFoot -11.368881 -19.093875 -6.556054
RightToeBase -3.121977 -0.000000 0.000000
3929
root -8.008185 33.270651 -3.409278 55.942234 22.141492 11.293307
Spine -31.205353 6.443734 4.047547
Head -20.633156 16.223104 -9.836767
LeftShoulder -8.919232 19.835549 12.229165
LeftArm 18.516064 -23.546003 -87.691792
LeftForeArm -1.845649 0.000000 119.422812
LeftHand -33.779252 -0.000000 39.292204
LeftHandThumb1 -26.253704 0.000000 33.147579
RightShoulder -16.726822 7.489341 -22.331198
RightArm -15.481150 -19.628920 71.280597
RightForeArm -24.878130 -0.000000 39.736169
RightHand -4.211170 -0.000000 8.685759
RightHandThumb1 -24.326973 -0.000000 -32.862282
LeftUpLeg 11.350990 12.067587 12.345408
LeftLeg 29.257132 -0.000000 -0.000000
LeftFoot 37.968422 14.848640 -16.843312
LeftToeBase 10.866877 -0.000000 -0.000000
RightUpLeg -55.262932 -14.117746 12.170301
RightLeg 9.226878 -0.000000 -0.000000
RightFoot -11.363802 -19.245587 -6.349325
RightToeBase -3.034017 -0.000000 0.000000
3930
root -8.017926 33.292126 -3.420532 56.322799 22.493034 11.682486
Spine -31.316306 6.240100 4.024939
Head -20.886948 15.943086 -9.996216
LeftShoulder -8.847003 19.861377 12.183627
LeftArm 18.494496 -23.420138 -87.664498
LeftForeArm -1.873833 -0.000000 119.656572
LeftHand -33.817982 -0.000000 39.326475
LeftHandThumb1 -26.253704 0.000000 33.147579
RightShoulder -16.750793 7.463430 -22.436018
RightArm -15.494013 -19.559251 71.242884
RightForeArm -24.858490 -0.000000 39.611810
RightHand -4.005823 -0.000000 8.762128
RightHandThumb1 -24.326973 -0.000000 -32.862282
LeftUpLeg 11.539803 11.198582 12.242742
LeftLeg 25.117991 -0.000000 -0.000000
LeftFoot 37.848561 15.362050 -16.558122
LeftToeBase 10.582471 -0.000000 -0.000000
RightUpLeg -55.488062 -14.377705 12.099095
RightLeg 9.145414 -0.000000 -0.000000
RightFoot -11.356738 -19.419059 -6.145516
RightToeBase -2.956253 -0.000000 0.000000
3931
root -8.040934 33.315179 -3.431666 56.772379 22.913877 12.126935
Spine -31.451383 5.884821 4.022218
Head -21.180499 15.775513 -10.063939
LeftShoulder -8.901512 19.951109 12.124210
LeftArm 18.558071 -23.216966 -87.624383
LeftForeArm -1.873468 -0.000000 119.884734
LeftHand -33.814608 -0.000000 39.257870
LeftHandThumb1 -26.253704 0.000000 33.147579
RightShoulder -16.704705 7.440545 -22.457421
RightArm -15.502530 -19.493659 71.191960
RightForeArm -24.851926 -0.000000 39.574607
RightHand -4.046280 -0.000000 8.843675
RightHandThumb1 -24.326973 -0.000000 -32.862282
LeftUpLeg 11.581086 10.373550 12.263701
LeftLeg 21.275101 -0.000000 -0.000000
LeftFoot 37.562463 15.810381 -16.203874
LeftToeBase 10.729627 -0.000000 -0.000000
RightUpLeg -55.785651 -14.706121 12.119823
RightLeg 9.068862 -0.000000 -0.000000
RightFoot -11.338107 -19.594778 -5.997978
RightToeBase -2.916202 -0.000000 0.000000
3932
root -8.060835 33.334869 -3.447068 57.135043 23.228414 12.502314
Spine -31.486300 5.709323 3.917790
Head -21.471130 15.519148 -10.087008
LeftShoulder -8.865470 19.964681 12.088905
LeftArm 18.595132 -23.036969 -87.568789
LeftForeArm -1.832269 -0.000000 120.146259
LeftHand -33.911903 -0.000000 39.236511
LeftHandThumb1 -26.253704 0.000000 33.147579
RightShoulder -16.698739 7.403704 -22.457889
RightArm -15.544062 -19.352427 71.140226
RightForeArm -24.871768 0.000000 39.557441
RightHand -4.102320 0.000000 8.748334
RightHandThumb1 -24.326973 -0.000000 -32.862282
LeftUpLeg 11.666322 9.907435 12.322062
LeftLeg 17.728912 -0.000000 -0.000000
LeftFoot 37.552424 15.688380 -15.274542
LeftToeBase 9.756788 -0.000000 -0.000000
RightUpLeg -56.032652 -14.919469 12.042519
RightLeg 9.051000 -0.000000 -0.000000
RightFoot -11.305962 -19.827674 -5.892356
RightToeBase -2.872833 -0.000000 0.000000
3933
root -8.080442 33.354912 -3.463565 57.511297 23.549764 12.898171
Spine -31.521888 5.529431 3.804282
Head -21.773807 15.237604 -10.118557
LeftShoulder -8.822870 20.045861 12.062390
LeftArm 18.685166 -22.831923 -87.542155
LeftForeArm -1.856237 0.000000 120.395842
LeftHand -33.850218 -0.000000 39.358994
LeftHandThumb1 -26.253704 0.000000 33.147579
RightShoulder -16.714148 7.356474 -22.453343
RightArm -15.520011 -19.105218 71.072916
RightForeArm -24.962947 -0.000000 39.469668
RightHand -4.019807 -0.000000 8.883299
RightHandThumb1 -24.326973 -0.000000 -32.862282
LeftUpLeg 11.632469 9.563480 12.406403
LeftLeg 14.573017 -0.000000 -0.000000
LeftFoot 37.648437 15.444186 -14.597581
LeftToeBase 8.723814 -0.000000 -0.000000
RightUpLeg -56.324568 -15.220055 12.058919
RightLeg 9.053246 -0.000000 -0.000000
RightFoot -11.293787 -19.963204 -5.808824
RightToeBase -2.822862 -0.000000 0.000000
